<svg version="1.1" id="Layer_1" xmlns="http://www.w3.org/2000/svg" xmlns:xlink="http://www.w3.org/1999/xlink" x="0px" y="0px"
	 width="100%" viewBox="0 0 496 496" enable-background="new 0 0 496 496" xml:space="preserve">
<path fill="#000000" opacity="1.000000" stroke="none" 
	d="
M317.258972,204.000031 
	C317.285278,215.163101 317.127472,225.831223 317.422302,236.486832 
	C317.550385,241.116943 315.971497,242.549225 311.382324,242.433212 
	C300.226532,242.151199 289.056305,242.232529 277.896515,242.429443 
	C273.959106,242.498932 272.672943,241.076385 272.707275,237.197952 
	C272.867950,219.038269 272.589264,200.872498 272.929169,182.717560 
	C273.088959,174.182846 270.723480,168.068832 261.751617,165.855804 
	C260.066650,165.440201 257.751068,164.757034 258.293488,162.365036 
	C258.845642,159.930069 261.273315,160.713104 262.960419,160.711304 
	C305.446960,160.666077 347.933655,160.707779 390.419983,160.607330 
	C393.959503,160.598953 395.653687,161.689865 395.786316,165.294800 
	C396.232971,177.435242 396.788269,189.571655 397.252777,201.711502 
	C397.301727,202.990417 397.456299,204.576218 395.763580,205.031677 
	C393.648346,205.600784 392.777588,204.025177 392.066559,202.474792 
	C388.665283,195.058167 385.040741,187.729828 381.986420,180.171738 
	C378.182495,170.758911 371.740875,166.756638 361.454224,167.238998 
	C348.486816,167.847046 335.467804,167.493515 322.474213,167.320282 
	C318.584564,167.268433 317.123016,168.602997 317.187012,172.510696 
	C317.356110,182.838089 317.253174,193.169952 317.258972,204.000031 
z"/>
<path fill="#000000" opacity="1.000000" stroke="none" 
	d="
M146.514023,158.286652 
	C169.901886,153.238968 192.236069,154.876434 213.753555,164.783340 
	C224.073608,169.534805 223.950287,169.523727 223.433167,180.681854 
	C223.109558,187.664917 223.422318,194.677368 222.352264,201.623856 
	C222.133499,203.043976 222.533401,204.794174 220.415558,205.129120 
	C218.537125,205.426208 217.734238,204.053909 217.011536,202.736969 
	C212.924194,195.288895 208.551056,187.975677 204.874084,180.328598 
	C194.294113,158.325150 161.318329,158.339737 146.785095,171.365051 
	C135.131668,181.809341 135.023087,206.418381 147.555496,217.775604 
	C154.189499,223.787552 161.773773,228.166321 169.878464,231.786789 
	C176.384613,234.693176 182.858597,237.671585 189.759262,240.805313 
	C187.840179,242.931427 185.927216,242.344147 184.275162,242.346817 
	C161.275589,242.383850 138.275299,242.276978 115.276810,242.436630 
	C111.326813,242.464050 109.160324,240.950546 107.533051,237.564896 
	C96.633316,214.887177 98.219208,179.659103 131.155136,163.889084 
	C135.962921,161.587051 140.767593,159.256546 146.514023,158.286652 
z"/>
<path fill="#000000" opacity="1.000000" stroke="none" 
	d="
M329.105774,342.604797 
	C343.748108,342.622650 357.911621,342.394592 372.059692,342.761078 
	C379.271210,342.947906 383.760803,339.840210 386.535248,333.601410 
	C390.120056,325.540436 393.585724,317.426392 397.192902,309.375580 
	C398.022430,307.524200 398.366119,304.507904 401.208069,305.110870 
	C404.462555,305.801453 403.203796,308.911835 403.114075,311.004486 
	C402.622681,322.466675 401.820282,333.916351 401.407166,345.380524 
	C401.282928,348.827484 400.040039,350.160309 396.677002,350.123077 
	C390.182709,350.051147 383.686401,350.192535 377.190918,350.193085 
	C340.049286,350.196106 302.907654,350.183777 265.766022,350.176727 
	C265.432922,350.176666 265.090332,350.228943 264.768219,350.169678 
	C262.475159,349.747528 258.968628,351.353607 258.256256,348.209381 
	C257.501251,344.877106 261.323944,344.788086 263.396088,343.948151 
	C269.675568,341.402740 272.927368,337.135498 272.802094,330.201538 
	C272.645660,321.543854 272.920227,312.877716 272.722717,304.221771 
	C272.632538,300.270508 273.725861,298.514343 278.034576,298.599731 
	C289.355682,298.824036 300.687317,298.808411 312.008636,298.581207 
	C316.271545,298.495667 317.412628,300.169098 317.334839,304.172089 
	C317.134186,314.494202 317.242432,324.823517 317.312988,335.149353 
	C317.360779,342.147491 317.712006,342.442596 324.623138,342.593414 
	C325.955078,342.622467 327.288055,342.602356 329.105774,342.604797 
z"/>
<path fill="#000000" opacity="1.000000" stroke="none" 
	d="
M167.685089,346.718414 
	C189.713379,340.606903 196.018356,328.142487 191.799744,299.746857 
	C192.485123,298.452728 193.770737,298.695068 194.870163,298.691193 
	C205.860931,298.652283 216.853394,298.761871 227.841965,298.599518 
	C231.944656,298.538910 232.573944,300.624329 232.140335,303.957947 
	C229.493057,324.310638 218.638443,338.774078 200.176407,347.264313 
	C181.453232,355.874603 161.653122,356.760559 141.548904,353.901093 
	C129.498917,352.187164 117.797081,349.207947 106.511604,344.486328 
	C101.616531,342.438324 99.100616,339.876740 99.568680,334.140442 
	C100.339172,324.697998 100.349937,315.194275 100.724983,305.718140 
	C100.787781,304.131409 100.353592,302.098816 102.554169,301.579468 
	C104.966660,301.010071 105.620468,303.120331 106.436340,304.688660 
	C110.427628,312.361023 113.757568,320.355560 118.233406,327.800690 
	C126.359497,341.317657 138.478302,347.475952 153.902756,347.757141 
	C158.374252,347.838654 162.898605,348.218842 167.685089,346.718414 
z"/>
<path fill="#000000" opacity="1.000000" stroke="none" 
	d="
M196.853806,272.226746 
	C197.821350,275.296722 200.181229,277.597595 199.638428,280.878479 
	C197.300339,280.277527 185.541336,280.356964 182.553986,281.481354 
	C185.367203,275.192963 187.452286,269.746246 190.248642,264.693115 
	C191.275497,262.837555 193.235016,264.357910 194.060257,265.982025 
	C195.034851,267.900116 195.814316,269.917328 196.853806,272.226746 
z"/>
<path fill="#000000" opacity="1.000000" stroke="none" 
	d="
M315.908081,278.723755 
	C318.252808,279.942078 317.827972,281.012024 315.919128,281.197601 
	C312.947540,281.486511 309.931030,281.371277 306.934906,281.329468 
	C304.932770,281.301544 304.547729,279.935822 304.607788,278.236755 
	C304.678345,276.239441 304.676727,274.239166 304.682678,272.240112 
	C304.708405,263.568115 309.425415,260.992218 317.850586,265.340393 
	C316.492401,268.148224 313.898224,266.980652 311.858185,267.256256 
	C310.332123,267.462463 308.573486,267.510834 308.588043,269.513367 
	C308.603180,271.599030 310.414062,271.440002 311.922943,271.588776 
	C313.587738,271.752960 315.629608,270.614807 316.838562,272.881104 
	C315.923004,275.245941 313.953125,274.609863 312.209595,274.564301 
	C310.762695,274.526550 308.798096,273.955811 308.681244,276.124084 
	C308.566803,278.246216 310.669128,277.911133 312.050781,278.175842 
	C313.194275,278.394897 314.361511,278.489716 315.908081,278.723755 
z"/>
<path fill="#000000" opacity="1.000000" stroke="none" 
	d="
M120.478302,277.056244 
	C122.192886,274.895325 123.105042,276.745270 124.235062,277.471649 
	C126.723412,279.071259 129.030640,279.343628 131.089157,276.853638 
	C130.233719,274.453674 128.141327,274.639679 126.515953,274.014191 
	C124.087349,273.079590 121.177658,272.700378 120.727585,269.344452 
	C120.484680,267.533203 121.178421,266.036804 122.709244,265.074707 
	C125.473015,263.337738 128.383270,263.314331 131.243591,264.800598 
	C132.742432,265.579376 133.953156,266.703613 133.848465,268.900116 
	C130.636368,270.407867 127.451057,264.598389 124.043732,268.775696 
	C125.494827,270.690796 127.538597,271.200256 129.604141,271.753113 
	C132.311356,272.477722 134.670502,273.580719 134.367493,277.069580 
	C134.068192,280.515839 131.584839,281.304901 128.802063,281.620789 
	C125.129631,282.037628 121.739403,281.743927 120.478302,277.056244 
z"/>
<path fill="#000000" opacity="1.000000" stroke="none" 
	d="
M152.697296,274.867310 
	C152.695694,273.397461 152.610458,272.392761 152.710876,271.406952 
	C152.953781,269.022369 151.511108,265.743713 154.037552,264.498322 
	C157.171082,262.953674 160.903549,263.397827 164.162567,264.965027 
	C166.242844,265.965424 167.451721,267.842957 167.103973,270.259766 
	C166.786865,272.463654 165.963959,274.727783 163.533859,275.171417 
	C159.653015,275.879913 155.613251,276.013214 155.045410,281.383331 
	C151.748123,279.697357 153.031921,277.266846 152.697296,274.867310 
M158.216187,267.658752 
	C156.414856,268.537567 155.707184,269.979584 156.934326,271.614685 
	C158.059982,273.114532 159.911072,272.750092 161.500290,272.333893 
	C162.912888,271.963928 163.866470,270.939026 163.390289,269.413177 
	C162.693451,267.180328 160.761597,267.319244 158.216187,267.658752 
z"/>
<path fill="#000000" opacity="1.000000" stroke="none" 
	d="
M382.068298,268.373230 
	C382.565765,272.522675 381.073029,275.131042 377.215424,275.416901 
	C373.485901,275.693268 371.044525,277.100098 370.521667,280.811035 
	C368.274933,281.034119 367.952789,279.699188 367.901825,278.325897 
	C367.821808,276.170563 367.686005,273.980164 367.970367,271.857758 
	C368.333374,269.148193 366.260895,265.564362 370.181244,263.989990 
	C373.962372,262.471527 379.388306,264.441864 382.068298,268.373230 
M373.166412,272.446106 
	C375.103210,272.627533 377.218323,273.248779 378.400635,270.984009 
	C378.984558,269.865417 378.754517,268.632568 377.603546,267.959229 
	C375.936584,266.984100 374.003357,266.887787 372.483734,267.996887 
	C370.896667,269.155212 370.975525,270.779755 373.166412,272.446106 
z"/>
<path fill="#000000" opacity="1.000000" stroke="none" 
	d="
M225.077698,263.695618 
	C228.945801,264.279358 232.220932,265.098206 232.900909,269.914215 
	C228.718964,269.810272 224.812042,264.222534 221.142853,269.559662 
	C218.372910,273.588806 221.724274,279.175964 226.327744,278.646759 
	C228.615540,278.383789 229.680283,275.137970 232.739349,276.405304 
	C232.363068,279.621399 230.144409,280.740845 227.493698,281.479248 
	C224.322021,282.362793 221.560379,281.724030 219.284546,279.313873 
	C214.041412,273.761261 216.744431,265.945679 225.077698,263.695618 
z"/>
<path fill="#000000" opacity="1.000000" stroke="none" 
	d="
M370.163513,232.236542 
	C370.168732,233.027771 370.170685,233.359573 370.172668,233.691391 
	C370.228424,243.065720 368.820160,244.092255 358.705872,241.338470 
	C361.010803,236.693283 363.237305,232.140366 365.533875,227.623093 
	C366.125549,226.459274 367.299683,225.892578 368.475647,226.464294 
	C370.784576,227.586823 369.923920,229.893616 370.163513,232.236542 
z"/>
<path fill="#000000" opacity="1.000000" stroke="none" 
	d="
M339.551727,272.854706 
	C339.206512,269.445648 335.656769,267.983185 335.548615,264.488800 
	C339.329529,263.114807 339.703064,267.665558 342.282074,268.273895 
	C345.138428,268.082703 345.581512,263.599976 350.198273,264.337341 
	C345.449646,269.867035 344.281281,275.333954 350.602844,280.503357 
	C345.307556,282.107910 345.451874,276.595673 342.299530,276.113007 
	C339.944305,277.338074 339.451538,281.446136 335.218872,281.055634 
	C335.575348,277.564819 338.581299,275.906097 339.551727,272.854706 
z"/>
<path fill="#000000" opacity="1.000000" stroke="none" 
	d="
M257.354645,271.520508 
	C259.449951,271.732330 261.333893,271.161804 263.148285,272.441071 
	C262.037781,275.602692 259.549194,274.173523 257.708893,274.379272 
	C256.358490,274.530212 254.825363,274.411652 254.633636,276.175842 
	C254.401764,278.309601 256.090210,278.396179 257.622772,278.610046 
	C259.621918,278.888977 261.906433,277.992371 263.737488,279.848969 
	C260.186066,281.851746 252.762405,282.164764 251.697495,280.474792 
	C251.103195,279.531647 251.681763,265.452148 252.345581,264.703583 
	C253.912231,262.936890 261.559326,263.491608 264.345337,265.676697 
	C262.628510,268.422516 259.817017,266.814911 257.605865,267.352234 
	C256.475159,267.626923 255.127243,267.503540 254.760300,268.887573 
	C254.283691,270.685150 255.635574,271.149536 257.354645,271.520508 
z"/>
<path fill="#000000" opacity="1.000000" stroke="none" 
	d="
M334.744385,392.960876 
	C334.698853,387.299866 338.743042,388.461884 341.511627,388.631073 
	C344.732361,388.827850 344.825409,391.607910 343.921692,393.880127 
	C343.228851,395.621979 344.369720,397.073822 343.982483,398.715057 
	C341.270233,399.953278 341.078064,396.503906 339.239960,396.231110 
	C337.115021,395.920319 337.920410,398.718689 336.010437,399.063019 
	C333.942291,397.653015 335.076630,395.309540 334.744385,392.960876 
z"/>
<path fill="#000000" opacity="1.000000" stroke="none" 
	d="
M376.108032,388.357056 
	C382.381317,388.580139 378.541168,393.985962 380.611816,396.431793 
	C381.401825,397.364899 379.681671,399.138336 377.995544,399.240112 
	C375.509125,399.390259 372.640289,400.112854 371.581909,396.675446 
	C373.339294,394.547028 374.704681,397.447906 376.438446,396.503540 
	C375.721222,393.941589 370.674988,394.617126 371.809204,390.759705 
	C372.371307,388.848145 374.050568,388.537659 376.108032,388.357056 
z"/>
<path fill="#000000" opacity="1.000000" stroke="none" 
	d="
M323.977478,394.534363 
	C322.946014,395.144592 322.081787,395.506744 321.175110,395.886719 
	C321.920776,397.634216 324.235382,396.499695 324.895233,398.662292 
	C322.312897,399.688202 318.963654,400.492340 317.366394,398.496735 
	C315.486603,396.148102 315.693176,391.898590 317.244354,389.582275 
	C318.785645,387.280792 322.397766,387.563232 325.203003,389.141998 
	C324.515778,391.706848 322.287628,390.554749 320.968842,391.436798 
	C321.812134,392.640686 324.581390,391.729156 323.977478,394.534363 
z"/>
<path fill="#000000" opacity="1.000000" stroke="none" 
	d="
M123.285110,394.176392 
	C121.548126,392.685303 121.153221,391.091705 122.485954,389.645569 
	C123.984131,388.019928 126.120262,388.046265 128.025894,388.721954 
	C130.216110,389.498566 130.872253,390.893311 128.803452,392.708496 
	C128.702194,392.797333 129.093567,393.553558 129.354126,393.930939 
	C130.680008,395.851227 130.962830,398.031311 128.581512,398.846832 
	C126.212669,399.658081 123.069885,400.626160 121.751862,396.841339 
	C123.257530,394.897064 124.963013,397.852783 126.332352,396.319305 
	C125.822968,395.089172 124.514122,394.989380 123.285110,394.176392 
z"/>
<path fill="#000000" opacity="1.000000" stroke="none" 
	d="
M196.280792,392.388489 
	C197.109879,393.054169 197.676575,394.720581 198.493332,392.919830 
	C199.010574,391.779480 198.221558,390.272522 200.068130,388.417969 
	C201.693359,391.940918 201.372559,395.224121 200.640778,398.279633 
	C200.243118,399.940002 198.533264,399.451752 197.486160,398.323639 
	C196.485687,397.245789 195.593292,396.067627 194.496750,394.744568 
	C192.887802,395.876465 194.304840,398.199982 192.587540,399.003113 
	C190.624130,397.307373 189.625565,390.208740 191.425613,389.204407 
	C194.432648,387.526733 194.726883,390.828156 196.280792,392.388489 
z"/>
<path fill="#000000" opacity="1.000000" stroke="none" 
	d="
M177.367020,388.196686 
	C179.001724,388.221893 180.427124,387.905487 181.143539,389.489655 
	C180.492050,391.694336 178.286087,390.572754 176.940964,391.411743 
	C177.711517,392.511536 179.654999,391.933350 179.886520,393.622223 
	C179.885452,395.685425 177.418716,394.901978 176.756409,396.275391 
	C177.541794,397.640564 179.803253,396.461700 180.373856,398.774445 
	C178.067734,399.658112 175.264084,400.209076 173.611404,398.563232 
	C171.542587,396.502899 172.660339,393.209320 172.767685,390.472595 
	C172.874725,387.744049 175.441666,388.712402 177.367020,388.196686 
z"/>
<path fill="#000000" opacity="1.000000" stroke="none" 
	d="
M306.848694,393.910187 
	C304.746124,396.745453 300.688965,395.940216 299.206055,399.780487 
	C297.103729,396.084076 297.014648,392.675537 298.471161,389.857910 
	C299.632629,387.610962 302.699310,388.414917 304.854462,388.933472 
	C307.138824,389.483063 307.797699,391.365570 306.848694,393.910187 
z"/>
<path fill="#000000" opacity="1.000000" stroke="none" 
	d="
M265.877686,391.380981 
	C265.887054,393.047852 267.854645,392.265869 268.282745,393.630402 
	C268.595001,395.713715 265.632294,394.560944 265.454651,396.265808 
	C266.251678,397.637238 268.492249,396.538147 269.166321,398.809784 
	C266.659943,399.576538 263.488129,400.474670 262.042480,398.389130 
	C260.309875,395.889679 260.546478,391.818481 262.292389,389.486816 
	C263.831543,387.431244 267.282104,387.596100 270.054108,388.983521 
	C269.537506,391.610413 267.388855,390.631195 265.877686,391.380981 
z"/>
<path fill="#000000" opacity="1.000000" stroke="none" 
	d="
M237.970657,398.948151 
	C234.648392,398.833130 229.928940,401.955841 230.276062,395.028870 
	C230.616623,388.232452 231.231018,387.625580 239.125504,389.154816 
	C238.597137,391.408997 236.559174,390.720459 234.805511,391.413239 
	C235.785889,392.435883 237.919037,392.093994 237.853577,393.517700 
	C237.587219,395.894257 234.975418,394.577576 234.511337,396.236359 
	C235.373779,397.714233 238.072403,396.339050 237.970657,398.948151 
z"/>
<path fill="#000000" opacity="1.000000" stroke="none" 
	d="
M285.304016,389.230865 
	C286.440033,388.494354 287.322021,388.168762 288.319336,389.580200 
	C285.383667,392.368225 286.487213,395.527039 288.439758,398.786346 
	C285.656952,398.265961 280.996948,398.416473 279.213409,399.274200 
	C280.317474,395.682037 282.123779,392.339752 279.036652,389.494873 
	C281.325195,387.302124 283.105499,391.619995 285.304016,389.230865 
z"/>
<path fill="#000000" opacity="1.000000" stroke="none" 
	d="
M139.639069,392.310791 
	C143.023666,387.035278 146.495712,386.813477 149.440689,391.550201 
	C147.369308,392.903290 142.686935,388.327026 142.788376,393.867371 
	C142.870682,398.361969 146.630936,395.903534 149.334869,396.116241 
	C148.951935,399.458313 146.611130,399.442535 144.407928,399.352631 
	C140.057785,399.175018 139.579422,396.076843 139.639069,392.310791 
z"/>
<path fill="#000000" opacity="1.000000" stroke="none" 
	d="
M219.373734,389.263947 
	C220.344086,390.472473 221.162857,392.091827 219.257767,391.889862 
	C216.441971,391.591248 213.212311,390.597961 213.815155,394.794128 
	C214.364838,398.620117 217.894775,395.683167 220.508560,396.247437 
	C219.600540,399.478394 217.176132,399.547089 214.803802,399.386444 
	C211.660477,399.173584 210.726242,397.018341 210.665115,394.214386 
	C210.605667,391.487305 211.287292,389.254242 214.284348,388.494720 
	C215.947586,388.073212 217.575516,388.163574 219.373734,389.263947 
z"/>
<path fill="#000000" opacity="1.000000" stroke="none" 
	d="
M354.636536,388.957306 
	C357.213013,388.245026 359.489746,388.388672 362.342834,389.124542 
	C359.589783,391.922882 359.306458,395.436737 358.876862,399.854950 
	C354.895355,396.422729 357.086731,391.755402 354.636536,388.957306 
z"/>
<path fill="#000000" opacity="1.000000" stroke="none" 
	d="
M162.348389,395.789612 
	C162.145737,397.267181 162.476532,398.611542 160.111526,399.030029 
	C159.390869,395.521576 158.618317,392.184998 160.984924,387.933014 
	C162.973022,390.889374 162.147018,393.217438 162.348389,395.789612 
z"/>
</svg>